<?xml version="1.0" standalone="no"?>
<!DOCTYPE svg PUBLIC "-//W3C//DTD SVG 20010904//EN"
 "http://www.w3.org/TR/2001/REC-SVG-20010904/DTD/svg10.dtd">
<svg version="1.0" xmlns="http://www.w3.org/2000/svg"
 width="300.000000pt" height="300.000000pt" viewBox="0 0 300.000000 300.000000"
 preserveAspectRatio="xMidYMid meet">
<metadata>
Created by potrace 1.14, written by Peter Selinger 2001-2017
</metadata>
<g transform="translate(0.000000,300.000000) scale(0.100000,-0.100000)"
fill="#000000" stroke="none">
<path d="M675 2989 c-72 -15 -140 -32 -155 -39 -85 -39 -173 -89 -210 -119
-90 -72 -185 -184 -173 -204 3 -5 1 -7 -4 -4 -9 6 -37 -42 -83 -143 -4 -8 -16
-47 -26 -85 -18 -66 -19 -116 -19 -890 0 -774 1 -824 19 -895 17 -67 65 -181
98 -235 59 -93 171 -203 271 -262 75 -45 219 -98 242 -89 7 2 15 0 18 -7 3 -9
199 -12 833 -12 456 0 843 3 859 7 135 34 238 75 228 91 -3 6 -1 7 5 3 15 -9
113 58 183 126 113 110 203 283 227 438 12 76 10 1622 -2 1685 -28 140 -111
297 -213 400 -81 83 -158 139 -176 129 -6 -4 -9 -4 -5 1 17 18 -151 84 -267
105 -63 11 -1596 11 -1650 -1z"/>
</g>
</svg>
