<svg width="1000" height="495" viewBox="0 0 1000 495" fill="none" xmlns="http://www.w3.org/2000/svg">
<g clip-path="url(#clip0_0_2977)">
<g opacity="0.29827">
<path d="M1007.08 163.448L442.182 -356.858V-747.19L27.1096 -770C23.9043 -762.456 3.36709 -740.714 6.57176 -728.596C10.43 -714.102 29.8387 -718.735 35.4776 -709.409C42.0661 -698.42 30.7291 -653.749 27.3457 -640.86C20.8759 -616.445 6.09676 -596.665 1.82235 -572.25C-5.35982 -531.263 9.18245 -534.53 36.7242 -508.927C83.141 -465.742 45.9244 -420.952 57.6176 -370.223C67.1146 -328.878 108.605 -307.554 123.8 -266.211C135.553 -234.37 151.697 -226.233 176.746 -202.947C176.153 -217.084 163.51 -258.785 187.253 -255.102C210.817 -251.478 201.736 -216.669 206.247 -202.115C210.045 -189.997 236.933 -165.761 214.616 -154.593C207.196 -150.91 186.066 -165.582 177.577 -169.503C183.572 -150.791 179.774 -131.367 189.271 -113.487C200.608 -92.162 212.835 -100.359 227.853 -88.7754C243.344 -76.8355 241.683 -63.1137 234.797 -45.0554C227.615 -26.2247 220.196 -29.1352 231.592 -6.44342C239.843 9.95119 253.85 30.7421 265.9 43.2164C272.904 50.4634 280.502 52.1267 287.506 61.3932C293.323 69.1155 291.067 79.2142 298.012 86.1638C309.883 98.1037 330.006 98.282 339.384 113.904C349.831 131.309 337.96 144.437 368.706 142.833C370.309 177.643 376.897 209.185 376.541 243.994C393.695 250.825 421.414 242.687 439.399 239.063C457.266 263.18 480.355 246.429 500.774 259.558C509.678 265.26 507.837 279.517 513.239 284.506C524.339 294.723 532.529 288.308 546.301 291.872C556.51 294.486 564.404 301.97 574.138 304.703C583.338 307.257 598.475 301.258 605.301 309.396C613.492 319.138 599.78 336.958 612.127 344.799C622.395 351.333 637.115 335.77 647.088 338.027C658.721 340.7 692.079 371.174 700.271 381.212C709.59 392.677 718.969 414.062 724.25 428.793C732.501 451.841 731.373 463.127 748.408 479.998C759.27 490.75 748.942 491.522 766.63 494.67C778.204 496.749 793.518 488.374 805.212 487.067C829.549 484.394 854.122 489.027 878.102 484.453C900.421 480.176 921.729 473.166 944.64 469.899C964.465 467.048 999.367 469.246 1016.94 459.801C1035.99 449.643 1037.71 426.654 1010.17 430.932C1007.97 416.26 1017.77 396.003 1006.85 385.847C1022.04 365.056 1027.56 350.384 1029.93 324.959C1031 313.792 1031.48 301.436 1037 292.05C1042.4 282.783 1057.59 277.259 1060.56 269.299C1065.13 256.943 1057.83 251.419 1052.25 244.528C1048.69 240.073 1038.54 242.212 1035.63 238.291C1030.23 231.103 1035.57 223.678 1032.6 216.431C1023.94 195.462 1013.61 187.205 1007.08 163.444C1007.26 167.424 1007.44 171.463 1007.2 175.384" stroke="white" stroke-width="2" stroke-linecap="round" stroke-linejoin="round"/>
</g>
<path d="M728.114 83.9394C719.546 107.321 739.614 115.526 755.675 130.807C760.434 135.336 760.888 142.817 755.879 147.342C745.107 157.074 704.264 142.917 706.854 155.745C709.53 168.994 744.061 187.531 745.618 188.799C759.284 199.932 763.735 228.174 756.208 243.658C750.852 254.676 715.342 250.962 704.172 247.293C631.024 223.266 663.985 226.131 581.817 218.67C575.527 218.099 568.935 217.806 562.894 219.65C556.671 221.549 556.869 229.339 558.957 233.55C565.876 247.506 596.849 271.178 588.514 289.523C585.956 295.152 579.963 298.707 577.264 304.27C575.151 308.627 575.385 313.772 574.445 318.523" stroke="white" stroke-width="2"/>
<circle cx="572.5" cy="319.5" r="6.5" fill="#4AF6CD"/>
<circle cx="660" cy="360" r="3" fill="#4AF6CD"/>
<circle cx="724" cy="468" r="3" fill="#4AF6CD"/>
<circle cx="364" cy="225" r="3" fill="#4AF6CD"/>
<circle cx="728.5" cy="84.5" r="6.5" fill="#4AF6CD"/>
<path d="M394.576 324L396.816 312.976H395.424L393.584 322.672L391.408 312.976H389.792L387.664 322.672L385.888 312.976H384.4L386.64 324H388.544L390.592 314.768L392.624 324H394.576ZM404.622 319.536C404.622 316.96 403.422 315.376 401.15 315.376C398.974 315.376 397.646 317.248 397.646 319.872C397.646 322.544 399.022 324.192 401.374 324.192C402.542 324.192 403.486 323.792 404.318 323.136L403.678 322.256C402.942 322.768 402.318 322.992 401.486 322.992C400.27 322.992 399.358 322.24 399.214 320.288H404.59C404.606 320.096 404.622 319.824 404.622 319.536ZM403.166 319.2H399.214C399.326 317.328 400.062 316.544 401.182 316.544C402.51 316.544 403.166 317.456 403.166 319.104V319.2ZM409.339 315.376C407.595 315.376 406.299 316.352 406.299 317.68C406.299 318.88 407.019 319.664 408.843 320.144C410.475 320.576 410.891 320.896 410.891 321.776C410.891 322.512 410.187 323.008 409.083 323.008C408.171 323.008 407.387 322.704 406.747 322.16L405.931 323.088C406.667 323.728 407.691 324.192 409.115 324.192C410.827 324.192 412.443 323.392 412.443 321.632C412.443 320.16 411.419 319.456 409.643 319.008C408.283 318.656 407.835 318.336 407.835 317.648C407.835 316.976 408.427 316.544 409.387 316.544C410.171 316.544 410.827 316.784 411.563 317.312L412.203 316.336C411.403 315.728 410.523 315.376 409.339 315.376ZM418.776 323.616L418.216 322.608C417.8 322.864 417.464 322.976 417.096 322.976C416.36 322.976 416.088 322.576 416.088 321.728V316.704H417.928L418.088 315.568H416.088V313.488L414.616 313.664V315.568H413.144V316.704H414.616V321.792C414.616 323.36 415.464 324.192 416.888 324.192C417.608 324.192 418.216 324 418.776 323.616ZM427.336 312.784C425.304 312.784 423.864 313.968 423.864 315.664C423.864 317.376 424.984 318.192 427.128 318.848C429 319.424 429.512 319.904 429.512 320.976C429.512 322.304 428.44 322.944 427.144 322.944C425.944 322.944 425.048 322.512 424.296 321.792L423.416 322.768C424.328 323.664 425.576 324.192 427.16 324.192C429.64 324.192 431.096 322.848 431.096 320.928C431.096 318.816 429.592 318.128 427.832 317.584C425.848 316.976 425.416 316.528 425.416 315.6C425.416 314.544 426.296 314.032 427.4 314.032C428.312 314.032 429.08 314.32 429.88 315.024L430.744 314.064C429.816 313.232 428.856 312.784 427.336 312.784ZM437.222 315.376C436.166 315.376 435.334 315.904 434.726 316.736V312.032L433.254 312.192V324H434.726V318C435.286 317.12 435.942 316.528 436.854 316.528C437.654 316.528 438.198 316.896 438.198 318.16V324H439.67V317.952C439.67 316.368 438.758 315.376 437.222 315.376ZM445.797 315.376C443.397 315.376 442.021 317.184 442.021 319.792C442.021 322.464 443.381 324.192 445.781 324.192C448.165 324.192 449.541 322.384 449.541 319.776C449.541 317.104 448.197 315.376 445.797 315.376ZM445.797 316.56C447.189 316.56 447.957 317.584 447.957 319.776C447.957 321.984 447.189 323.008 445.781 323.008C444.373 323.008 443.605 321.984 443.605 319.792C443.605 317.584 444.389 316.56 445.797 316.56ZM455.637 315.376C454.613 315.376 453.829 316.016 453.381 317.28L453.237 315.568H451.973V324H453.445V319.184C453.797 317.568 454.405 316.816 455.461 316.816C455.765 316.816 455.941 316.848 456.197 316.912L456.469 315.472C456.213 315.408 455.909 315.376 455.637 315.376ZM464.357 319.536C464.357 316.96 463.157 315.376 460.885 315.376C458.709 315.376 457.381 317.248 457.381 319.872C457.381 322.544 458.757 324.192 461.109 324.192C462.277 324.192 463.221 323.792 464.053 323.136L463.413 322.256C462.677 322.768 462.053 322.992 461.221 322.992C460.005 322.992 459.093 322.24 458.949 320.288H464.325C464.341 320.096 464.357 319.824 464.357 319.536ZM462.901 319.2H458.949C459.061 317.328 459.797 316.544 460.917 316.544C462.245 316.544 462.901 317.456 462.901 319.104V319.2ZM472.972 311.184V325.568H472.62V311.184H472.972ZM491.8 324L490.888 312.976H488.824L486.616 320.992L484.296 312.976H482.248L481.336 324H482.776L483.144 319.136C483.272 317.52 483.352 315.808 483.352 314.512L485.864 322.752H487.288L489.672 314.528C489.688 315.44 489.8 317.296 489.944 319.024L490.328 324H491.8ZM500.278 322.032V318.176C500.278 316.416 499.35 315.376 497.318 315.376C496.374 315.376 495.446 315.568 494.406 315.952L494.774 317.024C495.638 316.736 496.422 316.576 497.046 316.576C498.214 316.576 498.806 317.024 498.806 318.24V318.864H497.51C495.158 318.864 493.798 319.84 493.798 321.648C493.798 323.152 494.806 324.192 496.486 324.192C497.51 324.192 498.406 323.808 498.998 322.928C499.254 323.76 499.798 324.096 500.646 324.192L500.982 323.168C500.55 323.008 500.278 322.768 500.278 322.032ZM496.822 323.088C495.862 323.088 495.366 322.56 495.366 321.568C495.366 320.416 496.15 319.84 497.702 319.84H498.806V321.776C498.326 322.656 497.686 323.088 496.822 323.088ZM504.693 322.304V312L503.221 312.176V322.336C503.221 323.552 503.829 324.192 504.901 324.192C505.333 324.192 505.749 324.096 506.149 323.904L505.765 322.88C505.605 322.944 505.429 322.976 505.221 322.976C504.837 322.976 504.693 322.752 504.693 322.304ZM508.709 311.52C508.101 311.52 507.685 311.952 507.685 312.528C507.685 313.088 508.101 313.52 508.709 313.52C509.333 313.52 509.749 313.088 509.749 312.528C509.749 311.952 509.333 311.52 508.709 311.52ZM509.461 324V315.568H507.989V324H509.461ZM516.36 315.376C515.336 315.376 514.552 315.84 513.976 316.624V312L512.504 312.176V324H513.8L513.944 323.072C514.52 323.776 515.256 324.192 516.184 324.192C518.232 324.192 519.496 322.416 519.496 319.776C519.496 316.96 518.264 315.376 516.36 315.376ZM515.832 323.024C515.08 323.024 514.408 322.56 513.976 321.888V317.856C514.408 317.184 515.016 316.544 515.944 316.544C517.128 316.544 517.912 317.376 517.912 319.776C517.912 322.08 517.064 323.024 515.832 323.024ZM528.276 324V315.568H526.804V321.584C526.292 322.432 525.604 323.04 524.692 323.04C523.78 323.04 523.396 322.608 523.396 321.456V315.568H521.924V321.616C521.924 323.264 522.804 324.192 524.276 324.192C525.476 324.192 526.26 323.712 526.9 322.688L527.012 324H528.276ZM531.701 321.968C531.077 321.968 530.597 322.464 530.597 323.072C530.597 323.456 530.773 323.792 531.045 324L530.405 326.656H531.461L532.533 324.208C532.741 323.744 532.821 323.424 532.821 323.072C532.821 322.464 532.341 321.968 531.701 321.968ZM543.331 312.784C540.835 312.784 538.755 314.752 538.755 318.48C538.755 322.192 540.691 324.192 543.363 324.192C544.851 324.192 545.923 323.584 546.515 322.96L545.747 321.984C545.123 322.448 544.451 322.912 543.411 322.912C541.699 322.912 540.371 321.664 540.371 318.48C540.371 315.152 541.763 314.032 543.427 314.032C544.195 314.032 544.867 314.288 545.555 314.848L546.387 313.872C545.507 313.168 544.723 312.784 543.331 312.784ZM553.468 321.232L554.3 324H555.9L552.38 312.976H550.46L546.924 324H548.46L549.292 321.232H553.468ZM553.1 320H549.66L551.388 314.24L553.1 320Z" fill="white"/>
<path d="M597.144 77.784C594.648 77.784 592.568 79.752 592.568 83.48C592.568 87.192 594.504 89.192 597.176 89.192C598.664 89.192 599.736 88.584 600.328 87.96L599.56 86.984C598.936 87.448 598.264 87.912 597.224 87.912C595.512 87.912 594.184 86.664 594.184 83.48C594.184 80.152 595.576 79.032 597.24 79.032C598.008 79.032 598.68 79.288 599.368 79.848L600.2 78.872C599.32 78.168 598.536 77.784 597.144 77.784ZM608.433 89V80.568H606.961V86.584C606.449 87.432 605.761 88.04 604.849 88.04C603.937 88.04 603.553 87.608 603.553 86.456V80.568H602.081V86.616C602.081 88.264 602.961 89.192 604.433 89.192C605.633 89.192 606.417 88.712 607.057 87.688L607.169 89H608.433ZM615.137 80.376C614.113 80.376 613.329 81.016 612.881 82.28L612.737 80.568H611.473V89H612.945V84.184C613.297 82.568 613.905 81.816 614.961 81.816C615.265 81.816 615.441 81.848 615.697 81.912L615.969 80.472C615.713 80.408 615.409 80.376 615.137 80.376ZM621.309 80.376C620.285 80.376 619.501 81.016 619.053 82.28L618.909 80.568H617.645V89H619.117V84.184C619.469 82.568 620.077 81.816 621.133 81.816C621.437 81.816 621.613 81.848 621.869 81.912L622.141 80.472C621.885 80.408 621.581 80.376 621.309 80.376ZM630.029 84.536C630.029 81.96 628.829 80.376 626.557 80.376C624.381 80.376 623.053 82.248 623.053 84.872C623.053 87.544 624.429 89.192 626.781 89.192C627.949 89.192 628.893 88.792 629.725 88.136L629.085 87.256C628.349 87.768 627.725 87.992 626.893 87.992C625.677 87.992 624.765 87.24 624.621 85.288H629.997C630.013 85.096 630.029 84.824 630.029 84.536ZM628.573 84.2H624.621C624.733 82.328 625.469 81.544 626.589 81.544C627.917 81.544 628.573 82.456 628.573 84.104V84.2ZM636.426 80.376C635.322 80.376 634.426 80.952 633.85 81.816L633.722 80.568H632.458V89H633.93V83.016C634.49 82.12 635.13 81.528 636.074 81.528C636.89 81.528 637.402 81.896 637.402 83.16V89H638.874V82.952C638.874 81.352 637.978 80.376 636.426 80.376ZM646.089 88.616L645.529 87.608C645.113 87.864 644.777 87.976 644.409 87.976C643.673 87.976 643.401 87.576 643.401 86.728V81.704H645.241L645.401 80.568H643.401V78.488L641.929 78.664V80.568H640.457V81.704H641.929V86.792C641.929 88.36 642.777 89.192 644.201 89.192C644.921 89.192 645.529 89 646.089 88.616ZM653.448 87.672V77.976H651.928V89H657.8L657.976 87.672H653.448ZM662.985 80.376C660.585 80.376 659.209 82.184 659.209 84.792C659.209 87.464 660.569 89.192 662.969 89.192C665.353 89.192 666.729 87.384 666.729 84.776C666.729 82.104 665.385 80.376 662.985 80.376ZM662.985 81.56C664.377 81.56 665.145 82.584 665.145 84.776C665.145 86.984 664.377 88.008 662.969 88.008C661.561 88.008 660.793 86.984 660.793 84.792C660.793 82.584 661.577 81.56 662.985 81.56ZM672.233 80.376C669.945 80.376 668.553 82.168 668.553 84.856C668.553 87.576 669.961 89.192 672.233 89.192C673.209 89.192 674.057 88.872 674.809 88.264L674.105 87.256C673.497 87.72 673.001 87.944 672.297 87.944C670.969 87.944 670.137 87.032 670.137 84.824C670.137 82.632 670.969 81.592 672.297 81.592C673.001 81.592 673.529 81.8 674.089 82.248L674.809 81.288C674.025 80.632 673.225 80.376 672.233 80.376ZM682.481 87.032V83.176C682.481 81.416 681.553 80.376 679.521 80.376C678.577 80.376 677.649 80.568 676.609 80.952L676.977 82.024C677.841 81.736 678.625 81.576 679.249 81.576C680.417 81.576 681.009 82.024 681.009 83.24V83.864H679.713C677.361 83.864 676.001 84.84 676.001 86.648C676.001 88.152 677.009 89.192 678.689 89.192C679.713 89.192 680.609 88.808 681.201 87.928C681.457 88.76 682.001 89.096 682.849 89.192L683.185 88.168C682.753 88.008 682.481 87.768 682.481 87.032ZM679.025 88.088C678.065 88.088 677.569 87.56 677.569 86.568C677.569 85.416 678.353 84.84 679.905 84.84H681.009V86.776C680.529 87.656 679.889 88.088 679.025 88.088ZM689.76 88.616L689.2 87.608C688.784 87.864 688.448 87.976 688.08 87.976C687.344 87.976 687.072 87.576 687.072 86.728V81.704H688.912L689.072 80.568H687.072V78.488L685.6 78.664V80.568H684.128V81.704H685.6V86.792C685.6 88.36 686.448 89.192 687.872 89.192C688.592 89.192 689.2 89 689.76 88.616ZM692.006 76.52C691.398 76.52 690.982 76.952 690.982 77.528C690.982 78.088 691.398 78.52 692.006 78.52C692.63 78.52 693.046 78.088 693.046 77.528C693.046 76.952 692.63 76.52 692.006 76.52ZM692.758 89V80.568H691.286V89H692.758ZM698.969 80.376C696.569 80.376 695.193 82.184 695.193 84.792C695.193 87.464 696.553 89.192 698.953 89.192C701.337 89.192 702.713 87.384 702.713 84.776C702.713 82.104 701.369 80.376 698.969 80.376ZM698.969 81.56C700.361 81.56 701.129 82.584 701.129 84.776C701.129 86.984 700.361 88.008 698.953 88.008C697.545 88.008 696.777 86.984 696.777 84.792C696.777 82.584 697.561 81.56 698.969 81.56ZM709.113 80.376C708.009 80.376 707.113 80.952 706.537 81.816L706.409 80.568H705.145V89H706.617V83.016C707.177 82.12 707.817 81.528 708.761 81.528C709.577 81.528 710.089 81.896 710.089 83.16V89H711.561V82.952C711.561 81.352 710.665 80.376 709.113 80.376Z" fill="white"/>
</g>
<defs>
<clipPath id="clip0_0_2977">
<rect width="1062" height="1265" fill="white" transform="translate(0 -770)"/>
</clipPath>
</defs>
</svg>
